# xmcd CD database file generated by OrangeCD 6.5
#
# Track frame offsets:
#	150
#	19228
#	36113
#	56609
#	75030
#	92035
#	106826
#	122929
#	138603
#	156844
#
# Disc length: 2455 seconds
#
# Revision: 1
# Processed by: cddbd v1.5.2PL0 Copyright (c) Steve Scherf et al.
# Submitted via: OrangeCD 6.5
#
DISCID=7809950a
DTITLE=Happoradio - Puolimieli
DYEAR=2010
DGENRE=Rock
TTITLE0=Ahmat tulevat
TTITLE1=Ihmisenpyörä
TTITLE2=1:30 (elossa)
TTITLE3=Anna anteeksi
TTITLE4=Sahattu oksa, poltettu silta
TTITLE5=Pohtija
TTITLE6=Pelastaja
TTITLE7=Umpisolmu
TTITLE8=Häävalssi mollissa
TTITLE9=Ottaisitko silti minut
EXTD=
EXTT0=
EXTT1=
EXTT2=
EXTT3=
EXTT4=
EXTT5=
EXTT6=
EXTT7=
EXTT8=
EXTT9=
PLAYORDER=
